<svg xmlns="http://www.w3.org/2000/svg" viewBox="0 0 120 120" width="120" height="120"><circle cx="60" cy="60" r="56" fill="#EFEBE9" stroke="#BCAAA4" stroke-width="2"/><circle cx="35" cy="30" r="14" fill="#8D6E63"/><circle cx="35" cy="30" r="8" fill="#A1887F"/><circle cx="85" cy="30" r="14" fill="#8D6E63"/><circle cx="85" cy="30" r="8" fill="#A1887F"/><ellipse cx="60" cy="62" rx="35" ry="32" fill="#8D6E63"/><ellipse cx="60" cy="68" rx="22" ry="18" fill="#D7CCC8"/><circle cx="48" cy="55" r="4" fill="#3E2723"/><circle cx="72" cy="55" r="4" fill="#3E2723"/><circle cx="46" cy="53" r="1.5" fill="white"/><circle cx="70" cy="53" r="1.5" fill="white"/><ellipse cx="60" cy="66" rx="5" ry="3.5" fill="#3E2723"/><path d="M55 72 Q60 78 65 72" fill="none" stroke="#3E2723" stroke-width="2" stroke-linecap<svg xmlns="http://www.w3.org/2000/svg" viewBox="0 0 120 120" width="120" height="120"><circle cx="60" cy="60" r="56" fill="#EFEBE9" stroke="#BCAAA4" stroke-width="2"/><circle cx="35" cy="30" r="14" roke-width="2"/><g transform="translate(6055)"><ellipse cx="0" cy="-18" rx="14" ry="16" fill="#4CAF50"/><ellipse cx="-16" cy="4" rx="14" ry="16" fill="#4CAF50" transform="rotate(-30)"/><ellipse cx="16" cy="4" rx="14" ry="16" fill="#4CAF50" transform="rotate(30)"/><ellipse cx="0" cy="10" rx="14" ry="16" fill="#66BB6A"/><path d="M0 20 Q2 40 0 50" fill="none" stroke="#2E7D32" stroke-width="3" stroke-linecap="round"/><path d="M0 35 Q-8 30 -12 25" fill="none" stroke="#2E7D32" stroke-width="2" stroke-linecap="round"/></g></svg>
