<svg xmlns="http://www.w3.org/2000/svg" viewBox="0 0 120 120" width="120" height="120"><defs><linearGradient id="bwl" x1="0%" y1="0%" x2="100%" y2="100%"><stop offset="0%" stop-color="#E040FB"/><stop offset="100%" stop-color="#7C4DFF"/></linearGradient><linearGradient id="bwr" x1="100%" y1="0%" x2="0%" y2="100%"><stop offset="0%" stop-color="#E040FB"/><stop offset="100%" stop-color="#7C4DFF"/></linearGradient></defs><circle cx="60" cy="60" r="56" fill="#F3E5F5" stroke="#CE93D8" stroke-width="2"/><path d="M60 40 C40 20 15 25 20 50 C25 70 50 75 60 60" fill="url(#bwl)" opacity="0.85"/><path d="M60 40 C80 20 105 25 100 50 C95 70 70 75 60 60" fill="url(#bwr)" opacity="0.85"/><path d="M60 60 C45 70 30 85 35 95 C40 100 55 90 60 75" fill="#AB47BC" opacity="0.7"/><path d="M60 60 C75 70 90 85 85 95 C80 100 65 90 60 75" fill="#AB47BC" opacity="0.7"/><ellipse cx="60" <svg xmlns="http://www.w3.org/2000/svg" viewBox="0 0 120 120" width="120" height="120"><defs><linearGradient id="bwl" x1="0%"" fill="white" opacity="0.3"/><path d="M57 38 Q52 28 48 22" fill="none" stroke="#4A148C" stroke-width="1.5" stroke-linecap="round"/><path d="M63 38 Q68 28 72 22" fill="none" stroke="#4A148C" stroke-width="1.5" stroke-linecap="round"/><circle cx="48" cy="22" r="2" fill="#4A148C"/><circle cx="72" cy="22" r="2" fill="#4A148C"/></svg>
