<svg xmlns="http://www.w3.org/2000/svg" viewBox="0 0 120 120" width="120" height="120"><circle cx="60" cy="60" r="56" fill="#E8F5E9" stroke="#A5D6A7" stroke-width="2"/><<svg xmlns="http://www.w3.org/2000/svg" viewBox="0 0 120 120" width="120" height="120"><circle cx="60" cy="60" r="56" fill="#E8F5E9" stroke="#A5D6A7" stroke-width="2"/><<svg xmlns="http://www.w3.org/2000/svg" viewBox="0 0 120 120" width="120" height="120"><circle cx="60" cy="60" r="56" fill="#E8F5E9" stroke="#A5D6A7" stroke-width="2"/><<svg xmlns="http://www.w3.org/2000/svg" viewBox="0 0 120 120" width="120" height="120"><circle cx="60" cy="60" r="56" fill="#E8F5E9" stroke="#A5D6A7" stroke-width="2"/><<svg xmlns="http://www.w3.org/2000/svg" viewBox="0 0 120 120" width="120" height="120"><circle cx="60" cy="60" r="56" fill="#E8F5E9" stroke="#A5D6A7" stroke-width="2"/><<svg xmlns="http://www.w3.org/2000/svg" viewBox="0 0 120 120" width="120" height="120"><circle cx="60" cy="60" r="56" fill="#E8F5E9" stroke="#A5D6A7" s0" width="120" height="120"><defs><linearGradient id="spg" x1="0%" y1="0%" x2="100%" y2="100%"><stop offset="0%" stop-color="#FFD600"/><stop offset="50%" stop-color="#FF6F00"/><stop offset="100%" stop-color="#FFD600"/></linearGradient></defs><circle cx="60" cy="60" r="56" fill="#FFFDE7" stroke="#FFF59D" stroke-width="2"/><path d="M60 10 L65 45 L100 50 L65 55 L60 90 L55 55 L20 50 L55 45Z" fill="url(#spg)"/><path d="M30 20 L33 32 L45 35 L33 38 L30 50 L27 38 L15 35 L27 32Z" fill="#FFD600" opacity="0.7"/><path d="M90 70 L92 78 L100 80 L92 82 L90 90 L88 82 L80 80 L88 78Z" fill="#FFD600" opacity="0.7"/><circle cx="85" cy="25" r="3" fill="#FFAB00" opacity="0.5"/><circle cx="25" cy="80" r="2.5" fill="#FFAB00" opacity="0.5"/></svg>
