<svg xmlns="http://www.w3.org/2000/svg" viewBox="0 0 120 120" width="120" height="120"><circle cx="60" cy="60" r="56" fill="#FFF3E0" stroke="#FFCC80" stroke-width="2"/><path d="M60 15 C60 15 40 40 40 60 C40 75 48 90 60 95 C72 90 80 75 80 60 C80 40 60 15 60 15Z" fill="#FF6D00"/><path d="M60 30 C60 30 48 48 48 62 C48 72 53 82 60 85 C67 82 72 72 72 62 C72 48 60 30 60 30Z" fill="#FFAB00"/><path d="M60 50 C60 50 54 60 54 68 C54 74 56 80 60 82 C64 80 66 74 66 68 C66 60 60 50 60 50Z" fill="#FFD600"/><ellipse cx="60" cy="98" rx="18" ry="4" fill="#FF6D00" opacity="0.2"/></svg>
