<svg xmlns="http://www.w3.org/2000/svg" viewBox="0 0 120 120" width="120" height="120"><circle cx="60" cy="60" r="56" fill="#F3E5F5" stroke="#CE93D8" stroke-width="2"/><path d="M30 60 C30 35 45 20 60 20 C75 20 90 35 90 60 L90 90 L80 82 L70 90 L60 82 L50 90 L40 82 L30 90Z" fill="white" stroke="#CE93D8" stroke-width="2"/><circle cx="48" cy="52" r="5" fill="#7B1FA2"/><circle cx="72" cy="52" <svg xmlns="http://www.w3.org/2000/svg" viewBox="0 0 120 120" width="120" height="120"><circle cx="60" cy="60" r="56" fill="#F3E5F5" stroke="#CE93D8" stroke-width="2"/><path d="M30 60 C30 35 45 20 60 20 C75 20 90 35 90 60 L90 90 L80 82 L70 90 L60 82 L50 90 L40 82 L30 90Z" fill="white" stroke="#CE93D8" stroke-width="2"/><circle cx="48" cy="52" r="5" fill="#7B1FA2"/><circle cx="72" cy="52" <svg xmlns="http://www.w3.org/2000/svg" viewBox="0 0 120 120" width="120" height="120"><circle cx="60" cy="60" r="56" fill="#F3E5F5" stroke="#CE93D8" stroke-width="2"/><path d="M30 60 C30 35 45 20 60 20 C75 20 90 350 50 54 60 54 68 C54 74 56 80 60 82 C64 80 66 74 66 68 C66 60 60 50 60 50Z" fill="#FFD600"/><ellipse cx="60" cy="98" rx="18" ry="4" fill="#FF6D00" opacity="0.2"/></svg>
