<svg xmlns="http://www.w3.org/2000/svg" viewBox="0 0 120 120" width="120" height="120">
  <defs>
    <linearGradient id="heartGrad" x1="0%" y1="0%" x2="100%" y2="100%">
      <stop offset="0%" stop-color="#FF1744"/>
      <stop offset="100%" stop-color="#FF6D00"/>
    </linearGradient>
    <filter id="glow"><feGaussianBlur stdDeviation="3" result="blur"/><feMerge><feMergeNode in="blur"/><feMergeNode in="SourceGraphic"/></feMerge></filter>
  </defs>
  <circle cx="60" cy="60" r="56" fill="#FFF0F0" stroke="#FFCDD2" stroke-width="2"/>
  <path d="M60 90 C60 90 25 65 25 45 C25 30 40 25 50 32 C55 36 58 40 60 45 C62 40 65 36 70 32 C80 25 95 30 95 45 C95 65 60 90 60 90Z" fill="url(#heartGrad)" filter="url(#glow)"/>
  <ellipse cx="42" cy="42" rx="8" ry="5" fill="rgba(255,255,255,0.3)" transform="rotate(-30,42,42)"/>
  <circle cx="35" cy="25" r="3" fill="#FF1744" opacity="0.4"/>
  <circle cx="88" cy="28" r="2.5" fill="#FF6D00" opacity="0.4"/>
  <circle cx="20" cy="55" r="2" fill="#FF1744" opacity="0.3"/>
  <circle cx="100" cy="60" r="2" fill="#FF6D00" opacity="0.3"/>
</svg>
