<svg xmlns="http://www.w3.org/2000/svg" viewBox="0 0 120 120" width="120" height="120">
  <defs>
    <linearGradient id="partyGrad" x1="0%" y1="0%" x2="100%" y2="100%">
      <stop offset="0%" stop-color="#FF6F00"/>
      <stop offset="100%" stop-color="#FFD600"/>
    </linearGradient>
  </defs>
  <circle cx="60" cy="60" r="56" fill="#FFF3E0" stroke="#FFCC80" stroke-width="2"/>
  <polygon points="30,85 45,20 60,85" fill="url(#partyGrad)" stroke="#E65100" stroke-width="1.5" stroke-linejoin="round"/>
  <ellipse cx="45" cy="85" rx="16" ry="4" fill="#E65100" opacity="0.3"/>
  <circle cx="35" cy="40" r="3" fill="#E91E63"/>
  <circle cx="50" cy="30" r="2.5" fill="#2196F3"/>
  <circle cx="42" cy="55" r="2" fill="#4CAF50"/>
  <rect x="38" y="45" width="4" height="4" rx="1" fill="#9C27B0" transform="rotate(20,40,47)"/>
  <rect x="46" y="60" width="3" height="3" rx="0.5" fill="#FF5722" transform="rotate(-15,47,61)"/>
  <circle cx="70" cy="25" r="4" fill="#E91E63" opacity="0.8"/>
  <circle cx="85" cy="35" r="3" fill="#2196F3" opacity="0.7"/>
  <circle cx="78" cy="50" r="2.5" fill="#FFD600" opacity="0.8"/>
  <rect x="75" y="20" width="5" height="5" rx="1" fill="#4CAF50" opacity="0.7" transform="rotate(30,77,22)"/>
  <rect x="90" y="45" width="4" height="4" rx="1" fill="#9C27B0" opacity="0.6" transform="rotate(-20,92,47)"/>
  <circle cx="25" cy="70" r="2" fill="#FF9800" opacity="0.6"/>
  <circle cx="95" cy="65" r="3" fill="#F44336" opacity="0.5"/>
  <polygon points="65,15 67,20 72,20 68,23 69,28 65,25 61,28 62,23 58,20 63,20" fill="#FFD600" stroke="#FF8F00" stroke-width="0.5"/>
</svg>
