<svg xmlns="http://www.w3.org/2000/svg" viewBox="0 0 120 120" width="120" height="120"><circle cx="60" cy="60" r="56" fill="#FFF3E0" stroke="#FFCC80" stroke-width="2"/><ellipse cx="60" cy="65" rx="35" ry="30" fill="#FF9800"/><ellipse cx="45" cy="65" rx="18" ry="<svg xmlns="http://www.w3.org/2000/svg" viewBox="0 0 120 120" width="120" height="120"><circle cx="60" cy="60" r="56" fill="#FFF3E0" stroke="#FFCC80" stroke-width="2"/><ellipse cx="60" cy="65" rx="35" ry="30" fill="#FF9800"/><ellipse cx="45" cy="65" rx="18" ry="<svg xmlns="http://www.w3.org/2000/svg" viewBox="0 0 120 120" width="120" height="120"><circle cx="60" cy="60" r="56" fill="#FFF3E0" stroke="#FFCC80" stroke-width="2"/><ellipse cx="60" cy="65" rx="35" ry="30" fill="#FF9800"/><ellipse cx="45" cy="65" rx="18" ry="<svg xmlns="http://www.w3.org/2000/svg" viewBox="0 0 120 120" width="120" height="120"><circle cx="60" cy="60" r="56" fill="#FFF3E0" stroke="#FFCC80" stroke-width="2"/><ellipse cx="60" cy="65" rx="35" ry="30" ke-width="6"/><path d="M21 85 A44 44 0 0 1 99 85" fill="none" stroke="#FF9800" stroke-width="6"/><path d="M27 85 A38 38 0 0 1 93 85" fill="none" stroke="#FFEB3B" stroke-width="6"/><path d="M33 85 A32 32 0 0 1 87 85" fill="none" stroke="#4CAF50" stroke-width="6"/><path d="M39 85 A26 26 0 0 1 81 85" fill="none" stroke="#2196F3" stroke-width="6"/><path d="M45 85 A20 20 0 0 1 75 85" fill="none" stroke="#9C27B0" stroke-width="6"/><circle cx="15" cy="88" r="8" fill="white" opacity="0.8"/><circle cx="22" cy="92" r="6" fill="white" opacity="0.6"/><circle cx="105" cy="88" r="8" fill="white" opacity="0.8"/><circle cx="98" cy="92" r="6" fill="white" opacity="0.6"/></svg>
