<svg xmlns="http://www.w3.org/2000/svg" viewBox="0 0 120 120" width="120" height="120"><circle cx="60" cy="<svg xmlns="http://www.w3.org/2000/svg" viewBox="0 0 120 120" width="120" height="120"><circle cx="60" cy="<svg xmlns="http://www.w3.org/2000/svg" viewBox="0 0 120 120" width="120" height="120"><circle cx="60" cy="<svg xmlns="http://www.w3.org/2000/svg" viewBox="0 0 120 120" width="120" height="120"><circle cx="60" cy="<svg xmlns="fi<svg xmlns="http://www.w3.org/2000/svg" viewBox="0 0 120 120" width="120" height="120"><circle cx="60" cy="<svg xmlns="http://www.w3.org/2000/svg" viewBox="0 0 120 120" width="120" height="120"><circle cx="60" cy="<svg xmlns="http://www.w3.org/2000/svg" viewBox="0 0 120 120" width="120" height="120"><circle cx="60" cy="<svg xmlns="http://www.w3.org/2000/svg" viewBox="0 0 120 120" width="120" height="120"><circle cx="60" cy="<svg xmlns="fi<svg xmlns="http://www.w3.org/2000/svg" viewBox="0 0 120 120" width="120" height="120"><circle cx="60" cy="<svg 0 120 120" width="120" height="120"><circle cx="60" cy="60" r="56" fill="#FCE4EC" stroke="#F48FB1" stroke-width="2"/><ellipse cx="60" cy="65" rx="28" ry="25" fill="white" stroke="#E0E0E0" stroke-width="1.5"/><circle cx="48" cy="58" r="3.5" fill="#880E4F"/><circle cx="46" cy="56" r="1.2" fill="white"/><path d="M42 70 Q50 78 58 70" fill="none" stroke="#880E4F" stroke-width="2" stroke-linecap="round"/><circle cx="38" cy="65" r="5" fill="#FCE4EC"/><polygon points="5525 6010 6525" fill="#FFD600" stroke="#F9A825" stroke-width="1"/><path d="M65 40 Q75 30 85 35 Q80 38 82 45 Q72 40 68 48" fill="#F48FB1"/><path d="M65 40 Q72 32 80 38 Q76 40 78 46 Q70 42 68 48" fill="#CE93D8"/><path d="M65 42 Q70 35 76 40 Q73 42 74 47 Q68 44 67 48" fill="#90CAF9"/><ellipse cx="75" cy="80" rx="12" ry="5" fill="#F8BBD0" opacity="0.5"/></svg>
